<?xml version="1.0" standalone="no"?>
<!DOCTYPE svg PUBLIC "-//W3C//DTD SVG 20010904//EN"
 "http://www.w3.org/TR/2001/REC-SVG-20010904/DTD/svg10.dtd">
<svg version="1.0" xmlns="http://www.w3.org/2000/svg"
 width="512.000000pt" height="512.000000pt" viewBox="0 0 512.000000 512.000000"
 preserveAspectRatio="xMidYMid meet">
<metadata>
Created by potrace 1.14, written by Peter Selinger 2001-2017
</metadata>
<g transform="translate(0.000000,512.000000) scale(0.100000,-0.100000)"
fill="#000000" stroke="none">
<path d="M3423 4626 c-83 -26 -134 -66 -235 -178 -68 -77 -70 -108 -3 -54 24
20 52 37 63 39 11 2 26 8 34 15 8 6 44 14 79 17 60 5 65 4 83 -21 13 -19 15
-29 7 -37 -18 -18 -13 -45 9 -52 11 -4 18 -11 14 -16 -10 -16 14 -36 60 -49
25 -7 55 -24 68 -38 13 -14 17 -22 10 -17 -19 10 -208 7 -229 -4 -10 -6 -47
-24 -83 -40 -36 -17 -113 -70 -175 -121 -147 -121 -226 -177 -294 -211 -31
-15 -180 -64 -331 -110 -151 -45 -279 -85 -285 -90 -5 -4 -86 -37 -180 -74
-177 -69 -298 -108 -375 -121 -43 -7 -52 -8 -92 -12 -10 -1 -18 -8 -18 -16 0
-15 -45 -30 -60 -21 -6 4 -10 2 -10 -4 0 -5 -24 -17 -52 -26 -87 -28 -249 -96
-306 -128 -45 -25 -57 -28 -90 -20 -28 7 -38 14 -40 32 -2 15 -7 20 -11 13 -5
-8 -18 -2 -40 18 -38 35 -81 59 -178 96 -60 24 -83 27 -188 28 -143 1 -195
-14 -249 -75 -40 -44 -46 -81 -21 -130 18 -35 40 -44 118 -54 45 -6 84 -1 181
20 83 18 137 25 160 21 43 -8 46 -22 9 -38 -275 -111 -398 -228 -397 -378 0
-52 5 -73 25 -102 13 -21 30 -38 37 -38 6 0 30 18 51 39 64 64 138 119 229
169 56 31 114 74 167 124 44 43 81 78 81 78 1 0 -1 -11 -4 -25 -7 -37 24 -110
52 -123 24 -10 24 -17 10 -108 -5 -36 -54 -75 -327 -259 -195 -131 -222 -154
-313 -265 -117 -143 -115 -138 -112 -264 l3 -111 -54 -65 c-66 -79 -93 -138
-93 -200 0 -69 26 -115 99 -172 l63 -50 0 -101 c0 -55 5 -126 11 -156 11 -52
10 -62 -19 -148 -17 -50 -61 -158 -97 -240 -37 -81 -93 -214 -126 -295 l-59
-147 0 -165 0 -166 643 1 c353 1 631 4 617 6 -14 3 -34 15 -45 27 -24 27 -52
39 -60 25 -7 -11 -35 14 -35 31 0 7 -6 10 -14 7 -8 -3 -17 1 -20 9 -4 10 -13
13 -32 8 -16 -4 -29 -2 -33 5 -4 6 -29 13 -54 14 -32 1 -47 6 -47 16 0 8 -8
12 -23 9 -19 -4 -22 0 -22 21 0 16 -5 25 -13 23 -7 -1 -24 10 -38 25 -21 23
-27 25 -36 13 -8 -12 -9 -12 -4 2 7 22 -13 35 -25 17 -6 -10 -9 -8 -9 8 0 16
-4 21 -15 17 -8 -4 -15 -1 -15 5 0 6 6 11 13 11 9 0 9 2 0 8 -6 4 -15 20 -18
35 -4 15 -13 27 -21 27 -17 0 -19 27 -2 32 9 3 7 10 -6 23 -10 10 -23 31 -28
47 -6 15 -14 28 -20 28 -5 0 -6 -5 -3 -10 3 -5 2 -10 -3 -10 -15 0 -35 29 -37
53 -1 12 -7 41 -12 65 -9 36 -8 44 6 53 12 7 13 12 4 15 -17 7 -16 25 1 59 13
24 13 30 0 42 -16 17 -18 29 -4 38 6 3 10 1 10 -4 0 -6 3 -11 8 -11 4 0 7 53
6 118 0 102 6 142 26 162 3 3 6 22 7 43 5 95 125 264 227 319 11 6 26 17 34
24 7 7 29 19 50 25 55 17 264 22 372 9 52 -6 104 -12 115 -13 11 -1 26 -8 34
-15 7 -7 20 -11 27 -8 8 3 14 1 14 -5 0 -6 6 -9 13 -6 16 5 73 -19 111 -48 17
-12 76 -46 131 -75 85 -44 106 -51 140 -47 39 6 40 6 175 -130 74 -75 161
-157 192 -184 l58 -48 -31 -15 c-33 -17 -32 -17 -147 53 -29 18 -59 30 -67 27
-8 -3 -15 -1 -15 4 0 6 -7 10 -15 10 -21 0 -19 -16 3 -25 16 -6 16 -7 -2 -21
-11 -8 -14 -14 -8 -14 10 0 10 -5 2 -20 -12 -23 5 -53 55 -100 15 -14 34 -38
42 -54 14 -27 14 -30 -11 -53 -14 -13 -26 -30 -26 -39 0 -8 -4 -22 -9 -32 -5
-9 -13 -30 -18 -47 -6 -22 -14 -29 -28 -27 -16 3 -17 2 -6 -12 13 -16 6 -21
-21 -17 -11 1 -10 -11 1 -29 7 -10 3 -21 -15 -38 -13 -14 -24 -31 -24 -38 0
-24 -23 -63 -33 -57 -6 4 -8 -2 -5 -15 4 -13 -3 -33 -18 -53 -16 -21 -21 -37
-15 -48 11 -21 3 -41 -15 -41 -8 0 -14 -3 -14 -7 0 -5 -20 -28 -44 -53 -24
-25 -46 -54 -48 -65 -2 -11 -10 -19 -16 -18 -7 2 -11 0 -11 -5 3 -20 -3 -32
-17 -32 -8 0 -22 -7 -30 -15 -14 -13 152 -15 1493 -15 829 0 1502 4 1495 9
-10 6 -9 24 8 90 12 46 19 85 16 88 -3 4 -6 -1 -6 -11 0 -10 -5 -14 -12 -10
-6 4 -8 3 -4 -4 3 -6 2 -13 -4 -17 -6 -4 -9 29 -7 90 l2 95 35 6 c46 9 88 31
190 101 48 33 93 72 104 92 25 43 32 166 13 235 -11 44 -11 59 7 135 14 61 20
125 20 221 1 164 -20 240 -87 316 -53 60 -84 73 -150 63 -76 -12 -140 -56
-152 -103 -8 -33 -6 -45 17 -87 l25 -48 -28 -11 c-37 -16 -55 -45 -63 -106
-10 -67 16 -249 49 -343 l25 -75 -67 -98 c-47 -71 -85 -113 -132 -150 -36 -29
-74 -60 -83 -69 -29 -29 -133 -88 -200 -113 -99 -38 -207 -56 -325 -56 l-109
0 -34 -56 c-38 -62 -38 -62 -42 15 l-3 55 -85 33 c-101 39 -170 75 -227 118
l-42 32 40 33 c23 18 47 48 55 66 20 48 44 167 44 220 0 40 -4 46 -37 68 -21
14 -57 30 -80 36 l-43 11 26 50 c48 96 27 129 -113 171 -188 56 -457 0 -659
-138 l-91 -62 -80 52 c-151 98 -463 382 -463 421 0 69 -119 183 -293 282 -11
6 -39 30 -62 52 -23 23 -47 41 -53 41 -16 0 -70 83 -64 99 3 9 0 11 -9 6 -11
-6 -12 -5 -1 6 14 15 17 43 3 35 -5 -3 -14 1 -21 9 -12 14 -7 20 15 15 5 -1
-11 16 -35 38 -25 22 -47 36 -50 31 -3 -5 -21 7 -39 26 -18 19 -36 35 -41 35
-4 0 -15 17 -23 38 -8 21 -22 44 -31 51 -9 7 -13 17 -10 22 3 5 -2 12 -11 15
-9 4 -14 13 -10 22 3 8 1 20 -5 27 -6 7 -10 17 -8 21 2 10 -8 47 -22 79 -20
47 -26 84 -24 145 3 94 -3 118 -28 116 -12 0 -23 4 -25 10 -2 6 4 10 14 10 10
-1 18 4 19 9 0 6 -7 9 -16 7 -13 -2 -19 5 -22 26 -5 35 0 54 13 46 5 -3 9 -1
9 5 0 5 -5 13 -10 16 -6 4 -9 19 -7 35 3 15 -3 46 -14 69 -10 22 -16 41 -13
41 3 0 0 9 -6 20 -6 11 -18 20 -26 20 -8 0 -13 4 -10 9 3 4 2 22 -3 38 -5 17
-6 35 -2 40 6 10 77 28 241 60 115 22 438 20 705 -6 372 -36 468 -41 584 -30
211 20 259 47 425 234 87 97 131 137 187 166 31 15 51 17 120 12 49 -3 157 2
260 11 96 9 236 20 310 25 106 6 145 12 187 30 69 31 70 53 1 115 -28 25 -55
46 -60 46 -5 0 -27 27 -48 60 -28 43 -45 86 -60 152 -23 98 -73 203 -126 266
-25 29 -32 45 -28 62 4 15 2 21 -4 17 -14 -9 -23 26 -11 47 5 9 6 21 2 27 -3
6 0 15 7 20 7 4 18 22 24 39 l10 31 20 -21 c11 -12 36 -38 55 -58 l35 -35 11
50 c6 28 15 57 20 64 5 8 9 33 9 57 0 33 -4 44 -20 49 -11 3 -51 30 -90 60
-38 30 -82 61 -98 70 -83 42 -209 55 -294 29z m68 -706 c116 -32 164 -72 210
-174 l21 -48 -22 -69 c-25 -76 -55 -109 -100 -109 l-27 0 23 47 c41 80 28 213
-21 213 -12 0 -35 12 -51 27 l-29 27 25 6 24 6 -24 17 c-31 21 -117 23 -165 3
-19 -8 -35 -11 -35 -7 0 7 88 81 97 81 2 0 35 -9 74 -20z m-625 -386 c51 -56
69 -113 60 -188 -13 -112 -59 -178 -142 -202 -76 -22 -100 -15 -51 15 53 32
85 79 96 138 13 66 4 124 -18 122 -42 -4 -69 3 -91 23 l-23 22 26 22 26 22
-32 15 c-18 8 -39 17 -47 19 -16 5 90 35 129 37 17 1 37 -13 67 -45z m-1716
-974 c0 -5 -5 -10 -11 -10 -5 0 -7 5 -4 10 3 6 8 10 11 10 2 0 4 -4 4 -10z
m-220 -165 c-16 -47 -23 -40 -8 8 6 20 13 35 16 33 2 -3 -1 -21 -8 -41z m238
-60 c-3 -3 -9 2 -12 12 -6 14 -5 15 5 6 7 -7 10 -15 7 -18z m32 -54 c9 -19 9
-22 -1 -19 -7 2 -14 15 -16 28 -4 27 -1 25 17 -9z m-323 -43 c-3 -8 -6 -5 -6
6 -1 11 2 17 5 13 3 -3 4 -12 1 -19z m1532 -1324 c12 -11 11 -12 -5 -8 -10 3
-41 25 -69 50 l-50 46 55 -38 c30 -20 61 -43 69 -50z m-90 -118 c-12 -20 -23
-35 -26 -33 -6 7 17 61 30 69 20 12 19 2 -4 -36z m-1677 -338 c-6 -6 -15 -8
-19 -4 -4 4 -1 11 7 16 19 12 27 3 12 -12z m1178 -417 c0 -5 -7 -12 -16 -15
-14 -5 -15 -4 -4 9 14 17 20 19 20 6z"/>
<path d="M3020 4469 c-19 -5 -44 -11 -55 -14 -11 -3 -48 -33 -83 -68 l-63 -63
68 7 c75 8 167 45 197 78 17 19 18 24 6 46 -14 27 -17 28 -70 14z"/>
<path d="M1248 4395 c-20 -18 -34 -36 -30 -39 3 -3 1 -6 -4 -6 -5 0 -9 -11 -9
-26 l0 -25 20 25 c32 40 48 31 20 -10 -27 -39 -38 -85 -33 -130 2 -24 10 -31
48 -44 25 -8 51 -19 59 -24 19 -12 9 -61 -29 -143 -19 -40 -36 -96 -41 -138
-5 -38 -27 -123 -50 -187 -45 -129 -47 -163 -11 -162 25 1 26 0 12 -27 -6 -10
-7 -19 -3 -19 10 1 61 69 124 166 28 42 72 92 107 120 75 61 257 172 326 199
56 23 66 42 44 83 -15 30 -87 98 -100 95 -10 -4 -48 28 -48 40 0 10 -104 109
-165 157 -20 16 -50 43 -68 60 -29 29 -64 49 -113 63 -13 4 -31 -4 -56 -28z"/>
<path d="M1156 4249 c-14 -17 -26 -36 -26 -42 0 -12 32 23 51 56 15 27 4 20
-25 -14z"/>
<path d="M1111 4154 c0 -11 3 -14 6 -6 3 7 2 16 -1 19 -3 4 -6 -2 -5 -13z"/>
<path d="M1135 3496 c5 -36 23 -72 31 -63 2 2 -5 25 -16 53 l-20 49 5 -39z"/>
<path d="M3864 3185 c-22 -22 -24 -30 -18 -77 9 -83 33 -160 59 -192 21 -27
24 -28 51 -14 16 8 28 20 27 26 -2 6 -11 50 -22 97 -16 73 -17 87 -5 92 19 7
18 43 -2 71 -20 29 -59 28 -90 -3z"/>
<path d="M4105 3120 c-3 -5 -2 -10 4 -10 5 0 13 5 16 10 3 6 2 10 -4 10 -5 0
-13 -4 -16 -10z"/>
<path d="M4113 3099 c-13 -5 -23 -15 -23 -24 0 -20 -41 -36 -57 -23 -18 14
-17 -13 2 -58 18 -44 18 -39 0 -74 -8 -16 -15 -38 -15 -49 0 -14 -5 -19 -15
-15 -8 4 -15 2 -15 -2 0 -5 -11 -21 -24 -37 l-24 -27 -17 42 c-11 29 -19 38
-25 29 -6 -11 -12 -11 -30 2 -13 9 -17 17 -11 22 6 3 16 16 22 28 7 12 8 19 4
15 -4 -4 -14 0 -22 10 -12 15 -13 14 -7 -10 4 -18 2 -28 -6 -28 -6 0 -8 4 -5
10 3 5 1 19 -5 30 -9 17 -14 19 -33 8 -12 -7 -24 -12 -27 -11 -3 1 -6 -10 -6
-23 -1 -13 2 -22 6 -19 8 5 4 -51 -6 -66 -3 -5 -9 -7 -14 -4 -15 9 -17 -32 -4
-71 8 -21 14 -39 14 -40 0 -1 -9 -11 -20 -24 -11 -13 -31 -22 -46 -22 l-27 0
24 -19 c13 -10 18 -19 12 -19 -7 0 -13 -8 -13 -17 0 -14 2 -15 9 -4 6 9 10 10
16 2 3 -7 15 -9 26 -6 14 5 21 0 29 -20 13 -33 13 -48 0 -40 -5 3 -10 15 -10
25 0 14 -5 18 -16 13 -9 -3 -12 -9 -7 -12 5 -3 12 -14 16 -24 4 -9 18 -22 32
-27 30 -11 33 -30 5 -30 -10 0 -23 -7 -28 -15 -16 -29 -232 -15 -266 16 -10 9
13 14 43 10 8 -2 10 2 5 11 -5 7 -9 23 -9 35 0 12 -11 33 -24 47 -21 22 -22
26 -8 32 9 3 13 12 10 21 -5 13 -7 12 -16 -3 -10 -17 -11 -17 -19 1 -5 13 -6
8 -2 -15 6 -32 5 -33 -10 -20 -15 12 -19 12 -26 0 -5 -8 -6 -18 -4 -22 3 -4 1
-8 -5 -8 -5 0 -12 6 -14 13 -4 9 -8 9 -15 -2 -7 -10 -14 -10 -29 -2 -11 5 -24
7 -28 3 -4 -4 -5 2 -3 12 1 10 -3 21 -9 23 -12 4 -18 -15 -13 -47 6 -40 181
-150 240 -150 10 0 23 -6 29 -14 10 -12 2 -16 -46 -26 -85 -16 -129 -27 -213
-51 -60 -17 -101 -21 -205 -21 -104 1 -145 -4 -205 -21 -64 -18 -101 -22 -250
-22 -151 0 -180 2 -202 17 -32 21 -114 158 -147 243 -36 95 -43 107 -92 158
-41 42 -50 47 -75 41 -16 -4 -32 -8 -35 -10 -11 -6 39 -181 68 -237 129 -257
375 -489 537 -505 74 -7 207 16 275 48 109 52 330 215 384 285 16 20 36 35 45
34 18 -2 70 10 87 20 6 3 19 7 30 8 55 8 114 26 110 34 -6 9 12 14 76 23 71 9
191 68 290 143 158 120 222 225 245 405 5 42 -12 104 -31 112 -8 3 -15 1 -15
-4 0 -5 -9 -11 -20 -15 -11 -3 -19 -10 -17 -15 1 -4 -2 -9 -8 -9 -5 -1 -11 7
-13 18 -2 12 -9 18 -17 15 -7 -3 -15 1 -17 9 -2 11 -9 12 -25 6z m57 -81 c0
-36 -4 -35 -14 5 -4 16 -2 27 4 27 5 0 10 -14 10 -32z m34 -54 c3 -8 2 -12 -4
-9 -6 3 -10 10 -10 16 0 14 7 11 14 -7z m-434 -304 c0 -5 -8 -10 -17 -10 -15
0 -16 2 -3 10 19 12 20 12 20 0z m-270 -84 c0 -16 -18 -31 -27 -22 -8 8 5 36
17 36 5 0 10 -6 10 -14z"/>
<path d="M3562 3059 c-12 -5 -25 -16 -29 -25 -17 -46 68 -304 100 -304 35 0
40 26 27 122 -9 64 -10 93 -3 95 8 3 8 15 0 41 -18 64 -50 87 -95 71z"/>
<path d="M1188 2993 c7 -3 16 -2 19 1 4 3 -2 6 -13 5 -11 0 -14 -3 -6 -6z"/>
<path d="M3995 2880 c-3 -5 -1 -10 4 -10 6 0 11 5 11 10 0 6 -2 10 -4 10 -3 0
-8 -4 -11 -10z"/>
<path d="M2190 2749 c0 -5 4 -9 10 -9 5 0 21 -12 35 -27 27 -30 34 -21 10 14
-15 21 -55 38 -55 22z"/>
<path d="M3550 2610 c0 -5 5 -10 11 -10 5 0 7 5 4 10 -3 6 -8 10 -11 10 -2 0
-4 -4 -4 -10z"/>
<path d="M3562 2575 c10 -10 49 -14 43 -4 -4 5 -16 9 -27 9 -12 0 -19 -2 -16
-5z"/>
<path d="M3565 2549 c-10 -15 3 -25 16 -12 7 7 7 13 1 17 -6 3 -14 1 -17 -5z"/>
<path d="M2718 2373 c7 -3 16 -2 19 1 4 3 -2 6 -13 5 -11 0 -14 -3 -6 -6z"/>
<path d="M2798 2353 c7 -3 16 -2 19 1 4 3 -2 6 -13 5 -11 0 -14 -3 -6 -6z"/>
<path d="M3358 2261 c-33 -34 -37 -41 -11 -17 22 21 46 37 53 34 17 -5 -127
-156 -199 -208 -89 -64 -102 -75 -56 -49 41 24 114 76 150 107 11 9 45 46 75
82 30 36 61 71 68 78 16 17 15 19 -7 25 -14 3 -34 -11 -73 -52z"/>
<path d="M3289 2183 c-13 -16 -12 -17 4 -4 16 13 21 21 13 21 -2 0 -10 -8 -17
-17z"/>
<path d="M626 521 c-6 -9 35 -24 43 -15 6 5 -18 24 -31 24 -4 0 -9 -4 -12 -9z"/>
<path d="M1308 3 c7 -3 16 -2 19 1 4 3 -2 6 -13 5 -11 0 -14 -3 -6 -6z"/>
</g>
</svg>
